# xmcd
#
# Track frame offsets:
#	150
#	21923
#	40443
#	55740
#	72471
#	85771
#	101426
#	118339
#	135023
#	153292
#	170821
#	192745
#	214702
#	227444
#	249139
#	257746
#
# Disc length: 3730 seconds
#
# Revision: 1
# Processed by: cddbd v1.5.2PL0 Copyright (c) Steve Scherf et al.
# Submitted via: audiograbber 1.83.01
#
DISCID=d80e9010
DTITLE=Billylee Janey - Gimme Some Lightnin'
DYEAR=2009
DGENRE=Bluesrock
TTITLE0=Gimme Some Lightnin'
TTITLE1=Bad Like That
TTITLE2=Blues My Soul
TTITLE3=Early Morning Sunshine
TTITLE4=Get Around
TTITLE5=Tear It Down
TTITLE6=Burnin Down The Wood
TTITLE7=Blues Haze
TTITLE8=Junkman
TTITLE9=Smoke And Mirrors
TTITLE10=Lightnin' Rod
TTITLE11=Highway Ryder
TTITLE12=Holes In My Shoes
TTITLE13=Guitar Playin' Fool
TTITLE14=Open Up The Door
TTITLE15=Gimme Some Lightnin' (Alternate Version)
EXTD=
EXTT0=
EXTT1=
EXTT2=
EXTT3=
EXTT4=
EXTT5=
EXTT6=
EXTT7=
EXTT8=
EXTT9=
EXTT10=
EXTT11=
EXTT12=
EXTT13=
EXTT14=
EXTT15=
PLAYORDER=
